<svg width="70" height="70" viewBox="0 0 70 70" fill="none" xmlns="http://www.w3.org/2000/svg">
<circle cx="35" cy="35" r="35" fill="#640884"/>
<path d="M43.36 49L40.76 41.44H30L27.44 49H22L32.48 20.32H38.32L48.8 49H43.36ZM36.96 29.68C36.8533 29.3067 36.6933 28.8 36.48 28.16C36.2667 27.52 36.0533 26.8667 35.84 26.2C35.6533 25.5067 35.5067 24.9333 35.4 24.48C35.2667 25.0133 35.0933 25.6267 34.88 26.32C34.6933 27.0133 34.5067 27.6667 34.32 28.28C34.16 28.8933 34.0267 29.36 33.92 29.68L31.4 37.04H39.44L36.96 29.68Z" fill="white"/>
</svg>
